<svg width="50" height="50" viewBox="0 0 50 50" fill="none" xmlns="http://www.w3.org/2000/svg">
<path d="M48.4438 6.06251C48.7357 6.35539 48.8997 6.75208 48.8997 7.16563C48.8997 7.57919 48.7357 7.97587 48.4438 8.26876L45.1844 11.5313L38.9344 5.28126L42.1938 2.01876C42.4868 1.72583 42.8841 1.56128 43.2985 1.56128C43.7128 1.56128 44.1101 1.72583 44.4032 2.01876L48.4438 6.05938V6.06251ZM42.975 13.7375L36.725 7.48751L15.4344 28.7813C15.2624 28.9532 15.1329 29.1629 15.0563 29.3938L12.5407 36.9375C12.495 37.075 12.4886 37.2225 12.5219 37.3635C12.5553 37.5045 12.6273 37.6335 12.7297 37.7359C12.8322 37.8384 12.9611 37.9103 13.1021 37.9437C13.2431 37.9771 13.3906 37.9706 13.5282 37.925L21.0719 35.4094C21.3024 35.3336 21.5121 35.2052 21.6844 35.0344L42.975 13.7406V13.7375Z" fill="black"/>
<path fill-rule="evenodd" clip-rule="evenodd" d="M3.125 42.1875C3.125 43.4307 3.61886 44.623 4.49794 45.5021C5.37701 46.3811 6.5693 46.875 7.8125 46.875H42.1875C43.4307 46.875 44.623 46.3811 45.5021 45.5021C46.3811 44.623 46.875 43.4307 46.875 42.1875V23.4375C46.875 23.0231 46.7104 22.6257 46.4174 22.3326C46.1243 22.0396 45.7269 21.875 45.3125 21.875C44.8981 21.875 44.5007 22.0396 44.2076 22.3326C43.9146 22.6257 43.75 23.0231 43.75 23.4375V42.1875C43.75 42.6019 43.5854 42.9993 43.2924 43.2924C42.9993 43.5854 42.6019 43.75 42.1875 43.75H7.8125C7.3981 43.75 7.00067 43.5854 6.70765 43.2924C6.41462 42.9993 6.25 42.6019 6.25 42.1875V7.8125C6.25 7.3981 6.41462 7.00067 6.70765 6.70765C7.00067 6.41462 7.3981 6.25 7.8125 6.25H28.125C28.5394 6.25 28.9368 6.08538 29.2299 5.79235C29.5229 5.49933 29.6875 5.1019 29.6875 4.6875C29.6875 4.2731 29.5229 3.87567 29.2299 3.58265C28.9368 3.28962 28.5394 3.125 28.125 3.125H7.8125C6.5693 3.125 5.37701 3.61886 4.49794 4.49794C3.61886 5.37701 3.125 6.5693 3.125 7.8125V42.1875Z" fill="black"/>
</svg>
